<svg width="47" height="47" viewBox="0 0 47 47" fill="none" xmlns="http://www.w3.org/2000/svg">
<mask id="mask0_21_164" style="mask-type:alpha" maskUnits="userSpaceOnUse" x="0" y="0" width="47" height="47">
<rect width="47" height="47" fill="#D9D9D9"/>
</mask>
<g mask="url(#mask0_21_164)">
<path d="M20.7583 25.9478L16.5479 21.7374C16.1889 21.3784 15.7319 21.1989 15.1771 21.1989C14.6222 21.1989 14.1653 21.3784 13.8063 21.7374C13.4472 22.0964 13.2677 22.5534 13.2677 23.1083C13.2677 23.6631 13.4472 24.1201 13.8063 24.4791L19.3875 30.0603C19.7792 30.452 20.2361 30.6478 20.7583 30.6478C21.2806 30.6478 21.7375 30.452 22.1292 30.0603L33.1938 18.9958C33.5528 18.6367 33.7323 18.1798 33.7323 17.6249C33.7323 17.0701 33.5528 16.6131 33.1938 16.2541C32.8347 15.8951 32.3778 15.7155 31.8229 15.7155C31.2681 15.7155 30.8111 15.8951 30.4521 16.2541L20.7583 25.9478ZM9.79167 41.1249C8.71458 41.1249 7.79253 40.7414 7.02552 39.9744C6.25851 39.2074 5.875 38.2853 5.875 37.2083V9.79159C5.875 8.7145 6.25851 7.79245 7.02552 7.02544C7.79253 6.25843 8.71458 5.87492 9.79167 5.87492H18.0167C18.441 4.69992 19.1509 3.75339 20.1464 3.03534C21.1418 2.31728 22.2597 1.95825 23.5 1.95825C24.7403 1.95825 25.8582 2.31728 26.8536 3.03534C27.8491 3.75339 28.559 4.69992 28.9833 5.87492H37.2083C38.2854 5.87492 39.2075 6.25843 39.9745 7.02544C40.7415 7.79245 41.125 8.7145 41.125 9.79159V37.2083C41.125 38.2853 40.7415 39.2074 39.9745 39.9744C39.2075 40.7414 38.2854 41.1249 37.2083 41.1249H9.79167ZM9.79167 37.2083H37.2083V9.79159H9.79167V37.2083ZM23.5 8.32284C23.9243 8.32284 24.2752 8.18412 24.5526 7.90669C24.83 7.62926 24.9688 7.27839 24.9688 6.85409C24.9688 6.42978 24.83 6.07891 24.5526 5.80148C24.2752 5.52405 23.9243 5.38534 23.5 5.38534C23.0757 5.38534 22.7248 5.52405 22.4474 5.80148C22.17 6.07891 22.0312 6.42978 22.0312 6.85409C22.0312 7.27839 22.17 7.62926 22.4474 7.90669C22.7248 8.18412 23.0757 8.32284 23.5 8.32284Z" fill="#00A6FF"/>
</g>
</svg>
