<svg width="39" height="39" viewBox="0 0 39 39" fill="none" xmlns="http://www.w3.org/2000/svg">
<mask id="mask0_87_155" style="mask-type:alpha" maskUnits="userSpaceOnUse" x="0" y="0" width="39" height="39">
<rect width="39" height="39" fill="#D9D9D9"/>
</mask>
<g mask="url(#mask0_87_155)">
<path d="M19.5 18.5C18.1594 18.5 17.0117 18.0227 16.057 17.068C15.1023 16.1133 14.625 14.9657 14.625 13.625C14.625 12.2844 15.1023 11.1367 16.057 10.182C17.0117 9.22734 18.1594 8.75 19.5 8.75C20.8406 8.75 21.9883 9.22734 22.943 10.182C23.8977 11.1367 24.375 12.2844 24.375 13.625C24.375 14.9657 23.8977 16.1133 22.943 17.068C21.9883 18.0227 20.8406 18.5 19.5 18.5ZM8.125 30.2501V27.575C8.125 26.9042 8.32031 26.2766 8.71093 25.6922C9.10156 25.1078 9.62708 24.6542 10.2875 24.3313C11.8208 23.5959 13.3552 23.0443 14.8906 22.6766C16.426 22.3089 17.9625 22.125 19.5 22.125C21.0375 22.125 22.574 22.3089 24.1094 22.6766C25.6448 23.0443 27.1792 23.5959 28.7125 24.3313C29.3729 24.6542 29.8984 25.1078 30.2891 25.6922C30.6797 26.2766 30.875 26.9042 30.875 27.575V30.2501H8.125ZM9.75 28.625H29.25V27.575C29.25 27.2146 29.1339 26.8761 28.9016 26.5594C28.6693 26.2427 28.3479 25.975 27.9375 25.7563C26.6 25.1084 25.221 24.612 23.8004 24.2672C22.3799 23.9224 20.9464 23.75 19.5 23.75C18.0536 23.75 16.6201 23.9224 15.1996 24.2672C13.779 24.612 12.4 25.1084 11.0625 25.7563C10.6521 25.975 10.3307 26.2427 10.0984 26.5594C9.86615 26.8761 9.75 27.2146 9.75 27.575V28.625ZM19.5 16.875C20.3938 16.875 21.1589 16.5568 21.7953 15.9204C22.4318 15.2839 22.75 14.5188 22.75 13.625C22.75 12.7313 22.4318 11.9662 21.7953 11.3297C21.1589 10.6933 20.3938 10.375 19.5 10.375C18.6062 10.375 17.8411 10.6933 17.2047 11.3297C16.5682 11.9662 16.25 12.7313 16.25 13.625C16.25 14.5188 16.5682 15.2839 17.2047 15.9204C17.8411 16.5568 18.6062 16.875 19.5 16.875Z" fill="#008DD9"/>
</g>
</svg>
