<svg width="2083" height="954" viewBox="0 0 2083 954" fill="none" xmlns="http://www.w3.org/2000/svg">
<path d="M216.046 541.043C228.246 530.866 228.793 512.309 217.213 501.431L67.5789 360.876C-93.6683 209.413 61.3253 -55.7563 272.424 10.4186L555 99L875.5 221.5L998.891 264.795C1066.61 288.557 1140.4 288.597 1208.15 264.907L1435.93 185.257C1516.83 156.969 1605.74 162.697 1682.34 201.132L1762.8 241.501C1793.51 256.91 1827.39 264.934 1861.75 264.934C2033.16 264.934 2139.11 451.843 2051.07 598.913L1838.5 954H398.5L209.296 573.14C203.846 562.169 206.638 548.89 216.046 541.043Z" fill="#00A6FF" fill-opacity="0.07"/>
</svg>
