<svg width="20" height="20" viewBox="0 0 20 20" fill="none" xmlns="http://www.w3.org/2000/svg">
<mask id="mask0_57_72" style="mask-type:alpha" maskUnits="userSpaceOnUse" x="0" y="0" width="20" height="20">
<rect width="20" height="20" fill="#D9D9D9"/>
</mask>
<g mask="url(#mask0_57_72)">
<path d="M11.25 18.3333C9.75 18.3333 8.47223 17.8055 7.41667 16.75C6.36112 15.6944 5.83334 14.4167 5.83334 12.9167V12.4375C4.63889 12.243 3.64584 11.684 2.85417 10.7604C2.06251 9.8368 1.66667 8.74999 1.66667 7.49999V3.33332C1.66667 3.09721 1.74653 2.8993 1.90626 2.73957C2.06598 2.57985 2.26389 2.49999 2.50001 2.49999H4.16667C4.16667 2.26388 4.24653 2.06596 4.40626 1.90624C4.56598 1.74652 4.76389 1.66666 5.00001 1.66666C5.23612 1.66666 5.43403 1.74652 5.59376 1.90624C5.75348 2.06596 5.83334 2.26388 5.83334 2.49999V4.16666C5.83334 4.40277 5.75348 4.60068 5.59376 4.76041C5.43403 4.92013 5.23612 4.99999 5.00001 4.99999C4.76389 4.99999 4.56598 4.92013 4.40626 4.76041C4.24653 4.60068 4.16667 4.40277 4.16667 4.16666H3.33334V7.49999C3.33334 8.41666 3.65973 9.20138 4.31251 9.85416C4.96528 10.5069 5.75 10.8333 6.66667 10.8333C7.58334 10.8333 8.36806 10.5069 9.02084 9.85416C9.67362 9.20138 10 8.41666 10 7.49999V4.16666H9.16667C9.16667 4.40277 9.08681 4.60068 8.92709 4.76041C8.76737 4.92013 8.56945 4.99999 8.33334 4.99999C8.09723 4.99999 7.89931 4.92013 7.73959 4.76041C7.57987 4.60068 7.5 4.40277 7.5 4.16666V2.49999C7.5 2.26388 7.57987 2.06596 7.73959 1.90624C7.89931 1.74652 8.09723 1.66666 8.33334 1.66666C8.56945 1.66666 8.76737 1.74652 8.92709 1.90624C9.08681 2.06596 9.16667 2.26388 9.16667 2.49999H10.8333C11.0694 2.49999 11.2674 2.57985 11.4271 2.73957C11.5868 2.8993 11.6667 3.09721 11.6667 3.33332V7.49999C11.6667 8.74999 11.2708 9.8368 10.4792 10.7604C9.6875 11.684 8.69445 12.243 7.5 12.4375V12.9167C7.5 13.9583 7.86459 14.8437 8.59375 15.5729C9.32292 16.3021 10.2083 16.6667 11.25 16.6667C12.2917 16.6667 13.1771 16.3021 13.9063 15.5729C14.6354 14.8437 15 13.9583 15 12.9167V11.5208C14.5139 11.3403 14.1146 11.0382 13.8021 10.6146C13.4896 10.191 13.3333 9.70832 13.3333 9.16666C13.3333 8.47221 13.5764 7.88193 14.0625 7.39582C14.5486 6.90971 15.1389 6.66666 15.8333 6.66666C16.5278 6.66666 17.1181 6.90971 17.6042 7.39582C18.0903 7.88193 18.3333 8.47221 18.3333 9.16666C18.3333 9.70832 18.1771 10.191 17.8646 10.6146C17.5521 11.0382 17.1528 11.3403 16.6667 11.5208V12.9167C16.6667 14.4167 16.1389 15.6944 15.0833 16.75C14.0278 17.8055 12.75 18.3333 11.25 18.3333ZM15.8333 9.99999C16.0694 9.99999 16.2674 9.92013 16.4271 9.76041C16.5868 9.60068 16.6667 9.40277 16.6667 9.16666C16.6667 8.93055 16.5868 8.73263 16.4271 8.57291C16.2674 8.41318 16.0694 8.33332 15.8333 8.33332C15.5972 8.33332 15.3993 8.41318 15.2396 8.57291C15.0799 8.73263 15 8.93055 15 9.16666C15 9.40277 15.0799 9.60068 15.2396 9.76041C15.3993 9.92013 15.5972 9.99999 15.8333 9.99999Z" fill="white"/>
</g>
</svg>
