<svg width="199" height="19" viewBox="0 0 199 19" fill="none" xmlns="http://www.w3.org/2000/svg">
<path d="M1 7.58766C13.2576 6.02065 25.9476 5.07645 38.4321 4.05599C47.0736 3.34964 55.5726 2.79394 64.3208 2.6555C73.5736 2.50907 82.2926 1.01145 91.6664 1.01145C109.769 1.01145 127.529 0.796534 145.461 2.22926C155.391 3.02265 165.127 4.08618 174.936 5.15202C179.048 5.59885 182.977 6.51409 187.04 6.97875C190.368 7.3595 192.419 6.82795 195.109 8.13568C200.912 10.9567 191.853 8.90007 188.104 8.44013C161.433 5.16789 132.665 5.56812 105.395 5.97405C94.3794 6.13803 83.3357 6.68278 72.3339 7.03964C59.1773 7.4664 46.8829 10.3944 34.3975 12.4589C33.9091 12.5397 10.7297 16.4665 11.3106 16.7822C11.9822 17.147 14.706 16.904 15.5694 16.904C24.1135 16.904 32.2952 15.9622 40.6175 14.9859C51.6203 13.6952 62.2701 13.6159 73.3986 13.6159C97.7097 13.6159 122.36 12.9729 146.47 14.5901C151.945 14.9574 165.948 15.2962 168.436 18" stroke="#008DD9" stroke-width="2" stroke-linecap="round"/>
</svg>
