<svg width="309" height="25" viewBox="0 0 309 25" fill="none" xmlns="http://www.w3.org/2000/svg">
<path d="M1 9.91272C20.1369 7.79264 39.9488 6.5152 59.4399 5.13457C72.9313 4.17893 86.2 3.42709 99.8579 3.23979C114.304 3.04169 127.916 1.01548 142.551 1.01548C170.813 1.01548 198.541 0.724723 226.536 2.66312C242.039 3.73652 257.24 5.17542 272.553 6.61745C278.973 7.22197 285.108 8.46023 291.45 9.0889C296.647 9.60403 299.848 8.88487 304.048 10.6542C313.107 14.4708 298.965 11.6883 293.112 11.0661C251.471 6.63891 206.559 7.1804 163.984 7.7296C146.786 7.95145 129.544 8.68846 112.368 9.17128C91.8279 9.74866 72.6334 13.71 53.141 16.5033C52.3784 16.6125 16.1902 21.9253 17.0972 22.3524C18.1456 22.846 22.3982 22.5171 23.7461 22.5171C37.0853 22.5171 49.8588 21.2429 62.8518 19.9221C80.0296 18.1758 96.6564 18.0685 114.03 18.0685C151.985 18.0685 190.47 17.1986 228.111 19.3866C236.659 19.8835 258.52 20.3419 262.405 24" stroke="#008DD9" stroke-width="2" stroke-linecap="round"/>
</svg>
