<svg width="173" height="19" viewBox="0 0 173 19" fill="none" xmlns="http://www.w3.org/2000/svg">
<path d="M1 7.58766C11.6316 6.02065 22.6382 5.07645 33.4666 4.05599C40.9618 3.34964 48.3333 2.79394 55.9211 2.6555C63.9465 2.50907 71.5089 1.01145 79.6392 1.01145C95.3408 1.01145 110.745 0.796534 126.298 2.22926C134.91 3.02265 143.355 4.08618 151.863 5.15202C155.429 5.59885 158.838 6.51409 162.361 6.97875C165.248 7.3595 167.027 6.82795 169.36 8.13568C174.393 10.9567 166.536 8.90007 163.284 8.44013C140.151 5.16789 115.2 5.56812 91.5469 5.97405C81.9923 6.13803 72.4136 6.68278 62.8713 7.03964C51.4599 7.4664 40.7964 10.3944 29.9672 12.4589C29.5436 12.5397 9.43903 16.4665 9.9429 16.7822C10.5253 17.147 12.8879 16.904 13.6367 16.904C21.0474 16.904 28.1438 15.9622 35.3621 14.9859C44.9054 13.6952 54.1424 13.6159 63.7947 13.6159C84.8808 13.6159 106.261 12.9729 127.173 14.5901C131.922 14.9574 144.067 15.2962 146.225 18" stroke="#008DD9" stroke-width="2" stroke-linecap="round"/>
</svg>
