<svg width="238" height="19" viewBox="0 0 238 19" fill="none" xmlns="http://www.w3.org/2000/svg">
<path d="M1 7.58766C15.6967 6.02065 30.9116 5.07645 45.8803 4.05599C56.2414 3.34964 66.4314 2.79394 76.9203 2.6555C88.0143 2.50907 98.4682 1.01145 109.707 1.01145C131.412 1.01145 152.706 0.796534 174.206 2.22926C186.111 3.02265 197.785 4.08618 209.546 5.15202C214.476 5.59885 219.187 6.51409 224.058 6.97875C228.049 7.3595 230.507 6.82795 233.733 8.13568C240.69 10.9567 229.829 8.90007 225.334 8.44013C193.355 5.16789 158.864 5.56812 126.168 5.97405C112.96 6.13803 99.7188 6.68278 86.5279 7.03964C70.7534 7.4664 56.0126 10.3944 41.0429 12.4589C40.4573 12.5397 12.6657 16.4665 13.3622 16.7822C14.1674 17.147 17.4332 16.904 18.4684 16.904C28.7126 16.904 38.5223 15.9622 48.5006 14.9859C61.6927 13.6952 74.4616 13.6159 87.8044 13.6159C116.953 13.6159 146.508 12.9729 175.415 14.5901C181.98 14.9574 198.769 15.2962 201.752 18" stroke="#008DD9" stroke-width="2" stroke-linecap="round"/>
</svg>
