<svg width="272" height="19" viewBox="0 0 272 19" fill="none" xmlns="http://www.w3.org/2000/svg">
<path d="M1 7.58766C17.8855 6.02065 35.3665 5.07645 52.5646 4.05599C64.4688 3.34964 76.1765 2.79394 88.2276 2.6555C100.974 2.50907 112.985 1.01145 125.898 1.01145C150.835 1.01145 175.301 0.796534 200.002 2.22926C213.681 3.02265 227.094 4.08618 240.606 5.15202C246.27 5.59885 251.683 6.51409 257.279 6.97875C261.865 7.3595 264.689 6.82795 268.395 8.13568C276.389 10.9567 263.91 8.90007 258.746 8.44013C222.004 5.16789 182.376 5.56812 144.81 5.97405C129.635 6.13803 114.422 6.68278 99.2661 7.03964C81.1422 7.4664 64.206 10.3944 47.0068 12.4589C46.3339 12.5397 14.4032 16.4665 15.2034 16.7822C16.1285 17.147 19.8808 16.904 21.0701 16.904C32.84 16.904 44.1107 15.9622 55.5751 14.9859C70.732 13.6952 85.4027 13.6159 100.733 13.6159C134.222 13.6159 168.179 12.9729 201.392 14.5901C208.934 14.9574 228.224 15.2962 231.651 18" stroke="#008DD9" stroke-width="2" stroke-linecap="round"/>
</svg>
