<svg width="120" height="17" viewBox="0 0 120 17" fill="none" xmlns="http://www.w3.org/2000/svg">
<path d="M1 6.81264C8.3796 5.42998 16.0195 4.59687 23.5357 3.69646C28.7382 3.07322 33.8549 2.58289 39.1217 2.46073C44.6923 2.33154 49.9415 1.0101 55.5849 1.0101C66.4836 1.0101 77.1759 0.820471 87.9714 2.08464C93.9495 2.78469 99.8114 3.7231 105.717 4.66355C108.192 5.05781 110.558 5.86537 113.004 6.27537C115.008 6.61132 116.242 6.14231 117.862 7.29619C121.355 9.7853 115.902 7.97065 113.645 7.56482C97.5869 4.67755 80.268 5.0307 63.8502 5.38887C57.2182 5.53355 50.5694 6.01422 43.9459 6.3291C36.0251 6.70565 28.6233 9.28916 21.1067 11.1108C20.8126 11.1821 6.85768 14.647 7.20742 14.9255C7.61171 15.2474 9.25159 15.0329 9.77136 15.0329C14.9153 15.0329 19.841 14.2019 24.8514 13.3405C31.4755 12.2016 37.8871 12.1316 44.5869 12.1316C59.2232 12.1316 74.0635 11.5643 88.5787 12.9913C91.875 13.3153 100.305 13.6143 101.803 16" stroke="#008DD9" stroke-width="2" stroke-linecap="round"/>
</svg>
